<?xml version="1.0" encoding="UTF-8"?>
<svg xmlns="http://www.w3.org/2000/svg" xmlns:xlink="http://www.w3.org/1999/xlink" width="24pt" height="24pt" viewBox="0 0 24 24" version="1.1">
<g id="surface42722301">
<path style=" stroke:none;fill-rule:nonzero;fill:rgb(35.294119%,33.725491%,33.725491%);fill-opacity:1;" d="M 6.25 3 C 4.464844 3 3 4.464844 3 6.25 L 3 17.75 C 3 19.535156 4.464844 21 6.25 21 L 17.75 21 C 19.535156 21 21 19.535156 21 17.75 L 21 6.25 C 21 4.464844 19.535156 3 17.75 3 Z M 6.25 4.5 L 17.75 4.5 C 18.726562 4.5 19.5 5.273438 19.5 6.25 L 19.5 7 L 4.5 7 L 4.5 6.25 C 4.5 5.273438 5.273438 4.5 6.25 4.5 Z M 4.5 8.5 L 19.5 8.5 L 19.5 17.75 C 19.5 18.726562 18.726562 19.5 17.75 19.5 L 6.25 19.5 C 5.273438 19.5 4.5 18.726562 4.5 17.75 Z M 7.75 10.5 C 7.058594 10.5 6.5 11.058594 6.5 11.75 C 6.5 12.441406 7.058594 13 7.75 13 C 8.441406 13 9 12.441406 9 11.75 C 9 11.058594 8.441406 10.5 7.75 10.5 Z M 12 10.5 C 11.308594 10.5 10.75 11.058594 10.75 11.75 C 10.75 12.441406 11.308594 13 12 13 C 12.691406 13 13.25 12.441406 13.25 11.75 C 13.25 11.058594 12.691406 10.5 12 10.5 Z M 16.25 10.5 C 15.558594 10.5 15 11.058594 15 11.75 C 15 12.441406 15.558594 13 16.25 13 C 16.941406 13 17.5 12.441406 17.5 11.75 C 17.5 11.058594 16.941406 10.5 16.25 10.5 Z M 7.75 15 C 7.058594 15 6.5 15.558594 6.5 16.25 C 6.5 16.941406 7.058594 17.5 7.75 17.5 C 8.441406 17.5 9 16.941406 9 16.25 C 9 15.558594 8.441406 15 7.75 15 Z M 12 15 C 11.308594 15 10.75 15.558594 10.75 16.25 C 10.75 16.941406 11.308594 17.5 12 17.5 C 12.691406 17.5 13.25 16.941406 13.25 16.25 C 13.25 15.558594 12.691406 15 12 15 Z M 12 15 "/>
</g>
</svg>
